<svg id="logo" xmlns="http://www.w3.org/2000/svg" viewBox="0 0 625.42 789"><defs><style>.cls-1{fill:#fff;}</style></defs><path class="cls-1" d="M191.81,626a173.37,173.37,0,0,0,17.72-6.68V501.88q-8.58,1.44-17.72,2.42Z"/><path class="cls-1" d="M156.35,508.72V632.23a99.46,99.46,0,0,0,17.72-1.7V505.71q-8.62.44-17.72.45Z"/><path class="cls-1" d="M227.26,610.67c5.88-3.23,11.79-6.66,17.73-10.55V493.57q-8.53,2.61-17.73,4.76Z"/><path class="cls-1" d="M337.26,155.56v239c0,76.56-6.63,107.15-21.37,137v-71.4c-5.53,3.61-11.42,7.22-17.72,10.74v86.66c50.18-48.46,93.18-110.67,121.43-171,34.27-73.26,47.34-128.41,49.11-196.9.53-20.2.31-34,.31-34Z"/><path class="cls-1" d="M262.71,587.77c5.93-4.4,11.84-9.16,17.73-14.21V480q-8.44,3.94-17.73,7.53Z"/></svg>